<?xml version="1.0" encoding="UTF-8" standalone="no"?><svg xmlns="http://www.w3.org/2000/svg" xmlns:xlink="http://www.w3.org/1999/xlink" contentScriptType="application/ecmascript" contentStyleType="text/css" height="195px" preserveAspectRatio="none" style="width:1636px;height:195px;background:#FFFFFF;" version="1.1" viewBox="0 0 1636 195" width="1636px" zoomAndPan="magnify"><defs><filter height="300%" id="fnohx7yyof9vs" width="300%" x="-1" y="-1"><feGaussianBlur result="blurOut" stdDeviation="2.0"/><feColorMatrix in="blurOut" result="blurOut2" type="matrix" values="0 0 0 0 0 0 0 0 0 0 0 0 0 0 0 0 0 0 .4 0"/><feOffset dx="4.0" dy="4.0" in="blurOut2" result="blurOut3"/><feBlend in="SourceGraphic" in2="blurOut3" mode="normal"/></filter></defs><g><!--MD5=[49bf1f56f5ebe07e2a4f6d6bd23a43cd]
cluster WorkerPool--><rect fill="#FFFFFF" filter="url(#fnohx7yyof9vs)" height="135" style="stroke:#000000;stroke-width:1.5;" width="1244" x="7" y="46.2523"/><rect fill="#FFFFFF" height="10" style="stroke:#000000;stroke-width:1.5;" width="15" x="1231" y="51.2523"/><rect fill="#FFFFFF" height="2" style="stroke:#000000;stroke-width:1.5;" width="4" x="1229" y="53.2523"/><rect fill="#FFFFFF" height="2" style="stroke:#000000;stroke-width:1.5;" width="4" x="1229" y="57.2523"/><text fill="#000000" font-family="sans-serif" font-size="14" font-weight="bold" lengthAdjust="spacing" textLength="92" x="583" y="72.2474">WorkerPool</text><!--MD5=[665e81081660c1930ae263770fb595bc]
cluster Pool--><rect fill="#FFFFFF" filter="url(#fnohx7yyof9vs)" height="100" style="stroke:#000000;stroke-width:1.5;" width="529" x="714" y="73.2523"/><rect fill="#FFFFFF" height="10" style="stroke:#000000;stroke-width:1.5;" width="15" x="1223" y="78.2523"/><rect fill="#FFFFFF" height="2" style="stroke:#000000;stroke-width:1.5;" width="4" x="1221" y="80.2523"/><rect fill="#FFFFFF" height="2" style="stroke:#000000;stroke-width:1.5;" width="4" x="1221" y="84.2523"/><text fill="#000000" font-family="sans-serif" font-size="14" font-weight="bold" lengthAdjust="spacing" textLength="34" x="961.5" y="99.2474">Pool</text><!--MD5=[b44dd552d190738f366cb0d4cbe6023c]
entity Runner--><rect fill="#FFFFFF" filter="url(#fnohx7yyof9vs)" height="46.2969" style="stroke:#A80036;stroke-width:1.5;" width="91" x="273.5" y="119.2523"/><rect fill="#FFFFFF" height="10" style="stroke:#A80036;stroke-width:1.5;" width="15" x="344.5" y="124.2523"/><rect fill="#FFFFFF" height="2" style="stroke:#A80036;stroke-width:1.5;" width="4" x="342.5" y="126.2523"/><rect fill="#FFFFFF" height="2" style="stroke:#A80036;stroke-width:1.5;" width="4" x="342.5" y="130.2523"/><text fill="#000000" font-family="sans-serif" font-size="14" lengthAdjust="spacing" textLength="51" x="288.5" y="152.2474">Runner</text><!--MD5=[e783611f8dfc2794ae2cb5cb82cbbd85]
entity JobChannel--><rect fill="#FFFFFF" filter="url(#fnohx7yyof9vs)" height="46.2969" style="stroke:#A80036;stroke-width:1.5;" width="118" x="522" y="119.2523"/><rect fill="#FFFFFF" height="10" style="stroke:#A80036;stroke-width:1.5;" width="15" x="620" y="124.2523"/><rect fill="#FFFFFF" height="2" style="stroke:#A80036;stroke-width:1.5;" width="4" x="618" y="126.2523"/><rect fill="#FFFFFF" height="2" style="stroke:#A80036;stroke-width:1.5;" width="4" x="618" y="130.2523"/><text fill="#000000" font-family="sans-serif" font-size="14" lengthAdjust="spacing" textLength="78" x="537" y="152.2474">JobChannel</text><!--MD5=[be0fea92388dc250107d26269ceaa885]
entity ResultsChannel--><rect fill="#FFFFFF" filter="url(#fnohx7yyof9vs)" height="46.2969" style="stroke:#A80036;stroke-width:1.5;" width="149" x="14.5" y="119.2523"/><rect fill="#FFFFFF" height="10" style="stroke:#A80036;stroke-width:1.5;" width="15" x="143.5" y="124.2523"/><rect fill="#FFFFFF" height="2" style="stroke:#A80036;stroke-width:1.5;" width="4" x="141.5" y="126.2523"/><rect fill="#FFFFFF" height="2" style="stroke:#A80036;stroke-width:1.5;" width="4" x="141.5" y="130.2523"/><text fill="#000000" font-family="sans-serif" font-size="14" lengthAdjust="spacing" textLength="109" x="29.5" y="152.2474">ResultsChannel</text><!--MD5=[6802b8a0a387ae6489bedb728efc9112]
entity Worker.1--><rect fill="#FEFECE" filter="url(#fnohx7yyof9vs)" height="46.2969" style="stroke:#A80036;stroke-width:1.5;" width="102" x="1133" y="119.2523"/><rect fill="#FEFECE" height="10" style="stroke:#A80036;stroke-width:1.5;" width="15" x="1215" y="124.2523"/><rect fill="#FEFECE" height="2" style="stroke:#A80036;stroke-width:1.5;" width="4" x="1213" y="126.2523"/><rect fill="#FEFECE" height="2" style="stroke:#A80036;stroke-width:1.5;" width="4" x="1213" y="130.2523"/><text fill="#000000" font-family="sans-serif" font-size="14" lengthAdjust="spacing" textLength="62" x="1148" y="152.2474">Worker.1</text><!--MD5=[979cab450588fa349a4cd13252c68465]
entity Worker.2--><rect fill="#FEFECE" filter="url(#fnohx7yyof9vs)" height="46.2969" style="stroke:#A80036;stroke-width:1.5;" width="102" x="996" y="119.2523"/><rect fill="#FEFECE" height="10" style="stroke:#A80036;stroke-width:1.5;" width="15" x="1078" y="124.2523"/><rect fill="#FEFECE" height="2" style="stroke:#A80036;stroke-width:1.5;" width="4" x="1076" y="126.2523"/><rect fill="#FEFECE" height="2" style="stroke:#A80036;stroke-width:1.5;" width="4" x="1076" y="130.2523"/><text fill="#000000" font-family="sans-serif" font-size="14" lengthAdjust="spacing" textLength="62" x="1011" y="152.2474">Worker.2</text><!--MD5=[ad3e474955ee0e0d38ef22ecc6b37448]
entity Worker.3--><rect fill="#FEFECE" filter="url(#fnohx7yyof9vs)" height="46.2969" style="stroke:#A80036;stroke-width:1.5;" width="102" x="859" y="119.2523"/><rect fill="#FEFECE" height="10" style="stroke:#A80036;stroke-width:1.5;" width="15" x="941" y="124.2523"/><rect fill="#FEFECE" height="2" style="stroke:#A80036;stroke-width:1.5;" width="4" x="939" y="126.2523"/><rect fill="#FEFECE" height="2" style="stroke:#A80036;stroke-width:1.5;" width="4" x="939" y="130.2523"/><text fill="#000000" font-family="sans-serif" font-size="14" lengthAdjust="spacing" textLength="62" x="874" y="152.2474">Worker.3</text><!--MD5=[2035e917a739e65d5842f4817f9b04f7]
entity Worker...--><rect fill="#FEFECE" filter="url(#fnohx7yyof9vs)" height="46.2969" style="stroke:#A80036;stroke-width:1.5;" width="101" x="722.5" y="119.2523"/><rect fill="#FEFECE" height="10" style="stroke:#A80036;stroke-width:1.5;" width="15" x="803.5" y="124.2523"/><rect fill="#FEFECE" height="2" style="stroke:#A80036;stroke-width:1.5;" width="4" x="801.5" y="126.2523"/><rect fill="#FEFECE" height="2" style="stroke:#A80036;stroke-width:1.5;" width="4" x="801.5" y="130.2523"/><text fill="#000000" font-family="sans-serif" font-size="14" lengthAdjust="spacing" textLength="61" x="737.5" y="152.2474">Worker...</text><!--MD5=[2a8694ebfc19b9027a9d2b918eacaf01]
entity Miner--><rect fill="#FEFECE" filter="url(#fnohx7yyof9vs)" height="46.2969" style="stroke:#A80036;stroke-width:1.5;" width="78" x="1270" y="119.2523"/><rect fill="#FEFECE" height="10" style="stroke:#A80036;stroke-width:1.5;" width="15" x="1328" y="124.2523"/><rect fill="#FEFECE" height="2" style="stroke:#A80036;stroke-width:1.5;" width="4" x="1326" y="126.2523"/><rect fill="#FEFECE" height="2" style="stroke:#A80036;stroke-width:1.5;" width="4" x="1326" y="130.2523"/><text fill="#000000" font-family="sans-serif" font-size="14" lengthAdjust="spacing" textLength="38" x="1285" y="152.2474">Miner</text><!--MD5=[b1435b213846e3ddcd1e6c1cd6b83b9a]
entity Server--><rect fill="#FEFECE" filter="url(#fnohx7yyof9vs)" height="46.2969" style="stroke:#A80036;stroke-width:1.5;" width="84" x="1538" y="119.2523"/><rect fill="#FEFECE" height="10" style="stroke:#A80036;stroke-width:1.5;" width="15" x="1602" y="124.2523"/><rect fill="#FEFECE" height="2" style="stroke:#A80036;stroke-width:1.5;" width="4" x="1600" y="126.2523"/><rect fill="#FEFECE" height="2" style="stroke:#A80036;stroke-width:1.5;" width="4" x="1600" y="130.2523"/><text fill="#000000" font-family="sans-serif" font-size="14" lengthAdjust="spacing" textLength="44" x="1553" y="152.2474">Server</text><!--MD5=[8d6cf7a3a48c91deb967e815920d7758]
entity WorkerPool--><rect fill="#FEFECE" filter="url(#fnohx7yyof9vs)" height="46.2969" style="stroke:#A80036;stroke-width:1.5;" width="119" x="1383.5" y="119.2523"/><rect fill="#FEFECE" height="10" style="stroke:#A80036;stroke-width:1.5;" width="15" x="1482.5" y="124.2523"/><rect fill="#FEFECE" height="2" style="stroke:#A80036;stroke-width:1.5;" width="4" x="1480.5" y="126.2523"/><rect fill="#FEFECE" height="2" style="stroke:#A80036;stroke-width:1.5;" width="4" x="1480.5" y="130.2523"/><text fill="#000000" font-family="sans-serif" font-size="14" lengthAdjust="spacing" textLength="79" x="1398.5" y="152.2474">WorkerPool</text><!--MD5=[96340159f8aeb8c60943f4191ad35d0d]
link Runner to JobChannel--><path d="M364.6369,142.2523 C406.6495,142.2523 469.4096,142.2523 516.5327,142.2523 " fill="none" id="Runner-to-JobChannel" style="stroke:#A80036;stroke-width:1.0;"/><polygon fill="#A80036" points="521.6198,142.2523,512.6198,138.2523,516.6198,142.2523,512.6198,146.2523,521.6198,142.2523" style="stroke:#A80036;stroke-width:1.0;"/><text fill="#000000" font-family="sans-serif" font-size="13" lengthAdjust="spacing" textLength="121" x="382.75" y="135.3192">Send Job to workes</text><!--MD5=[2a1f2c064545c7cb79d643c366524068]
link JobChannel to Worker.1--><path d="M602.7866,118.9928 C625.8774,96.1978 664.6597,62.944 706,49.2523 C792.4909,20.6069 1034.7568,8.0118 1116,49.2523 C1142.6413,62.7759 1161.3442,92.1811 1172.3023,114.3298 " fill="none" id="JobChannel-to-Worker.1" style="stroke:#A80036;stroke-width:1.0;"/><polygon fill="#A80036" points="1174.5231,118.9376,1174.2186,109.0934,1172.3521,114.4335,1167.0121,112.567,1174.5231,118.9376" style="stroke:#A80036;stroke-width:1.0;"/><text fill="#000000" font-family="sans-serif" font-size="13" lengthAdjust="spacing" textLength="46" x="748" y="34.3192">Get Job</text><!--MD5=[aebf24252bb59ff2bdac5cd19d532438]
link JobChannel to Worker.2--><path d="M602.7866,118.9928 C625.8774,96.1978 664.6597,62.944 706,49.2523 C763.5903,30.1787 924.9039,21.7921 979,49.2523 C1005.6413,62.7759 1024.3442,92.1811 1035.3023,114.3298 " fill="none" id="JobChannel-to-Worker.2" style="stroke:#A80036;stroke-width:1.0;"/><polygon fill="#A80036" points="1037.5231,118.9376,1037.2186,109.0934,1035.3521,114.4335,1030.0121,112.567,1037.5231,118.9376" style="stroke:#A80036;stroke-width:1.0;"/><text fill="#000000" font-family="sans-serif" font-size="13" lengthAdjust="spacing" textLength="46" x="641" y="34.3192">Get Job</text><!--MD5=[817027f75158715e11ee6e968e5cfdc6]
link JobChannel to Worker.3--><path d="M602.7866,118.9928 C625.8774,96.1978 664.6597,62.944 706,49.2523 C762.9574,30.3883 787.4041,22.2805 841,49.2523 C867.8257,62.7521 886.8383,92.1612 898.0223,114.3174 " fill="none" id="JobChannel-to-Worker.3" style="stroke:#A80036;stroke-width:1.0;"/><polygon fill="#A80036" points="900.29,118.9269,899.9063,109.0855,898.0828,114.4404,892.7279,112.617,900.29,118.9269" style="stroke:#A80036;stroke-width:1.0;"/><text fill="#000000" font-family="sans-serif" font-size="13" lengthAdjust="spacing" textLength="46" x="695" y="34.3192">Get Job</text><!--MD5=[4715779f7073761d46e619757033ed82]
link JobChannel to Worker...--><path d="M640.173,142.2523 C664.7582,142.2523 693.1416,142.2523 717.3434,142.2523 " fill="none" id="JobChannel-to-Worker..." style="stroke:#A80036;stroke-width:1.0;"/><polygon fill="#A80036" points="722.4415,142.2523,713.4415,138.2523,717.4415,142.2523,713.4415,146.2523,722.4415,142.2523" style="stroke:#A80036;stroke-width:1.0;"/><text fill="#000000" font-family="sans-serif" font-size="13" lengthAdjust="spacing" textLength="46" x="658.25" y="135.3192">Get Job</text><!--MD5=[3437c248a2f355d0c5715c6fd5751b65]
link Worker.1 to ResultsChannel--><path d="M1174.5231,118.9376 C1163.9647,96.4446 1144.5363,63.7378 1116,49.2523 C1030.7937,6 348.4883,25.236 256,49.2523 C206.3546,62.1436 155.7819,93.3687 123.4983,116.0903 " fill="none" id="Worker.1-to-ResultsChannel" style="stroke:#A80036;stroke-width:1.0;"/><polygon fill="#A80036" points="119.2622,119.0969,128.9166,117.1497,123.3396,116.2029,124.2863,110.6259,119.2622,119.0969" style="stroke:#A80036;stroke-width:1.0;"/><text fill="#000000" font-family="sans-serif" font-size="13" lengthAdjust="spacing" textLength="56" x="970" y="34.3192">Send Job</text><!--MD5=[c209197aacd80fcb7d0001cc41c2c13b]
link Worker.2 to ResultsChannel--><path d="M1037.5231,118.9376 C1026.9647,96.4446 1007.5363,63.7378 979,49.2523 C907.3673,12.8902 333.7547,29.0619 256,49.2523 C206.3546,62.1436 155.7819,93.3687 123.4983,116.0903 " fill="none" id="Worker.2-to-ResultsChannel" style="stroke:#A80036;stroke-width:1.0;"/><polygon fill="#A80036" points="119.2622,119.0969,128.9166,117.1497,123.3396,116.2029,124.2863,110.6259,119.2622,119.0969" style="stroke:#A80036;stroke-width:1.0;"/><text fill="#000000" font-family="sans-serif" font-size="13" lengthAdjust="spacing" textLength="56" x="339" y="34.3192">Send Job</text><!--MD5=[654de13f3effafaa732c00f1c9ef0489]
link Worker.3 to ResultsChannel--><path d="M900.29,118.9269 C889.5034,96.4255 869.7338,63.7124 841,49.2523 C782.9377,20.0329 318.9135,32.9156 256,49.2523 C206.3546,62.1436 155.7819,93.3687 123.4983,116.0903 " fill="none" id="Worker.3-to-ResultsChannel" style="stroke:#A80036;stroke-width:1.0;"/><polygon fill="#A80036" points="119.2622,119.0969,128.9166,117.1497,123.3396,116.2029,124.2863,110.6259,119.2622,119.0969" style="stroke:#A80036;stroke-width:1.0;"/><text fill="#000000" font-family="sans-serif" font-size="13" lengthAdjust="spacing" textLength="56" x="801" y="34.3192">Send Job</text><!--MD5=[95ffbbb6674aa0919649d66e4299f143]
link Worker... to ResultsChannel--><path d="M766.8358,119.1143 C759.5103,96.7586 744.8887,64.1566 719,49.2523 C674.4161,23.5851 305.7931,36.3226 256,49.2523 C206.3546,62.1436 155.7819,93.3687 123.4983,116.0903 " fill="none" id="Worker...-to-ResultsChannel" style="stroke:#A80036;stroke-width:1.0;"/><polygon fill="#A80036" points="119.2622,119.0969,128.9166,117.1497,123.3396,116.2029,124.2863,110.6259,119.2622,119.0969" style="stroke:#A80036;stroke-width:1.0;"/><text fill="#000000" font-family="sans-serif" font-size="13" lengthAdjust="spacing" textLength="56" x="490" y="34.3192">Send Job</text><!--MD5=[382479f82bb6e019bdd22f2289a8bb7f]
link ResultsChannel to Runner--><path d="M163.6744,142.2523 C197.8972,142.2523 237.5754,142.2523 268.2623,142.2523 " fill="none" id="ResultsChannel-to-Runner" style="stroke:#A80036;stroke-width:1.0;"/><polygon fill="#A80036" points="273.495,142.2523,264.495,138.2523,268.495,142.2523,264.495,146.2523,273.495,142.2523" style="stroke:#A80036;stroke-width:1.0;"/><text fill="#000000" font-family="sans-serif" font-size="13" lengthAdjust="spacing" textLength="73" x="182" y="135.3192">Get Results</text><!--MD5=[9889a8362ca0cdb7ff4becee5fd4ffee]
link Miner to Server--><path d="M1315.5403,119.2071 C1325.0588,90.9768 1345.8426,45.1827 1383.5,31.2523 C1433.1037,12.9027 1452.8963,12.9027 1502.5,31.2523 C1538.341,44.5107 1559.9174,85.704 1570.891,113.9992 " fill="none" id="Miner-to-Server" style="stroke:#A80036;stroke-width:1.0;"/><polygon fill="#A80036" points="1572.6898,118.7725,1573.2591,108.9401,1570.9266,114.0937,1565.773,111.7612,1572.6898,118.7725" style="stroke:#A80036;stroke-width:1.0;"/><!--MD5=[d9106e0523a00908e6ebc7ebd21ee019]
link Miner to WorkerPool--><path d="M1348.2578,156.5448 C1358.2376,158.6726 1368.2174,159.6523 1378.1972,159.4837 " fill="none" id="Miner-to-WorkerPool" style="stroke:#A80036;stroke-width:1.0;"/><polygon fill="#A80036" points="1383.416,159.291,1374.2744,155.6262,1378.4194,159.4757,1374.5699,163.6208,1383.416,159.291" style="stroke:#A80036;stroke-width:1.0;"/><!--MD5=[6f1b8c9b5cda20bbd858ce1b4d941195]
link WorkerPool to Miner--><path d="M1383.416,125.2136 C1373.3447,124.6396 1363.2733,125.2349 1353.2019,126.9996 " fill="none" id="WorkerPool-to-Miner" style="stroke:#A80036;stroke-width:1.0;"/><polygon fill="#A80036" points="1348.2578,127.9598,1357.8554,130.1702,1353.1661,127.0064,1356.3299,122.317,1348.2578,127.9598" style="stroke:#A80036;stroke-width:1.0;"/><!--MD5=[3f1ba9d1b494d2d409c1b357d1824d3f]
@startuml
component WorkerPool {
   component "Runner" {
}
  component "JobChannel" {
}
   component "ResultsChannel" {
}
   component Pool {
      [Worker.1]
      [Worker.2]
      [Worker.3]
      [Worker...]
}
  Runner -> JobChannel : Send Job to workes
  JobChannel -> Worker.1 : Get Job
  JobChannel -> Worker.2 : Get Job
  JobChannel -> Worker.3 : Get Job
  JobChannel -> Worker... : Get Job
  
  Worker.1  -> ResultsChannel : Send Job
  Worker.2  -> ResultsChannel : Send Job
  Worker.3  -> ResultsChannel : Send Job
  Worker... -> ResultsChannel : Send Job
  
  ResultsChannel -> Runner : Get Results

  
}
[Miner]->[Server]
[Miner]->[WorkerPool]
[WorkerPool]->[Miner]
@enduml

PlantUML version 1.2021.7(Sun May 23 12:40:07 UTC 2021)
(GPL source distribution)
Java Runtime: OpenJDK Runtime Environment
JVM: OpenJDK 64-Bit Server VM
Default Encoding: UTF-8
Language: en
Country: US
--></g></svg>